<?xml version="1.0" encoding="utf-8"?>
<!-- Generator: Adobe Illustrator 17.0.0, SVG Export Plug-In . SVG Version: 6.00 Build 0)  -->
<!DOCTYPE svg PUBLIC "-//W3C//DTD SVG 1.1//EN" "http://www.w3.org/Graphics/SVG/1.1/DTD/svg11.dtd">
<svg version="1.1" id="Layer_1" xmlns="http://www.w3.org/2000/svg" xmlns:xlink="http://www.w3.org/1999/xlink" x="0px" y="0px"
	 width="70px" height="70px" viewBox="0 0 70 70" enable-background="new 0 0 70 70" xml:space="preserve">
<path fill="none" stroke="#000000" stroke-miterlimit="10" d="M16.476,22.881c0,4.217-0.006,8.203,1.155,12.277
	c0.252,0.884,0.44,2.038,1.129,2.702c0.856,0.825,2.388,1.138,3.417,1.753c2.496,1.492,5.826,3.057,8.712,3.398
	c3.72,0.439,7.24,0.679,10.991,0.703c1.79,0.011,3.522-0.404,5.153-0.345c1.803,0.065,5.025-0.922,6.533-1.77
	c1.164-0.655,1.415-1.554,1.97-2.688c0.601-1.228,1.735-2.295,2.014-3.608c0.403-1.893-0.327-3.099-1.047-4.713
	c-0.708-1.586-0.648-3.612-1.33-5.103c-0.321-0.703-1.154-1.204-1.645-1.804c-1.036-1.264-0.794-2.619-0.507-4.239
	c0.309-1.744,0.439-3.423,0.345-5.234c-1.61-0.082-1.905,0.325-3.217,1.026c-1.34,0.716-3.231,0.817-4.452,1.714
	c-1.385,1.018-1.134,1.754-2.898,1.671c-3.975-0.186-7.905-1.111-11.923-1.218c-2.078-0.056-4.156-0.099-6.177,0.267
	c-0.831,0.15-1.998,0.645-2.747,0.101c-1.037-0.753-1.941-2.7-2.744-3.677c-0.814-0.991-1.885-1.5-3.188-1.548
	c-0.407,1.035,0.054,1.766,0.544,2.661c0.706,1.289,0.958,2.795,1.533,4.134c-1.442,1.075-0.999,3.995-1.265,5.566"/>
<path fill="none" stroke="#000000" stroke-miterlimit="10" d="M27.667,38c-2.044-0.523-3.862-2.886-4.55-4.849
	c-0.405-1.154-0.966-2.405-0.691-3.681c0.21-0.974,0.839-1.304,1.575-2.095c3.576-3.848,9.729-3.181,14.486-3.184
	c3.341-0.002,7.55,0.649,9.943,3.331c0.793,0.889,2.33,2.472,2.692,3.591c0.31,0.957-0.121,2.218-0.276,3.107
	c-0.319,1.828-0.358,2.02-1.605,3.185c-1.001,0.935-1.663,1.519-3.122,1.673c-0.222,0.023-0.491,0.009-0.714-0.006"/>
<path fill="none" stroke="#000000" stroke-miterlimit="10" d="M29.929,28.595c0.001,0.487-0.182,1.357,0.209,1.669
	c0.494,0.393,1.098,0.078,0.963-0.577c-0.329-0.096-0.613-0.296-0.934-0.378"/>
<path fill="none" stroke="#000000" stroke-miterlimit="10" d="M41.476,30.381c-0.048,0.562-0.364,0.952-0.339,1.529
	c0.567,0.081,1.175,0.219,1.759,0.113c-0.505-0.595-0.896-1.45-1.3-2.119"/>
<path fill="none" stroke="#000000" stroke-miterlimit="10" d="M35.881,33.119c-0.911,0.118-0.435,1.368,0.458,1.172
	c0.02-0.316,0.085-0.737,0.018-1.053"/>
<path fill="none" stroke="#000000" stroke-miterlimit="10" d="M31.833,45.143c0,1.84,0.416,4.065-0.867,5.576
	c-0.672,0.791-1.561,0.991-2.49,1.358c-1.465,0.577-2.367,1.462-3.583,2.386c-1.854,1.408-3.871,2.165-6.137,2.735
	c-1.624,0.408-3.249,0.286-4.821,0.681c-1.079,0.271-2.073,0.674-3.173,0.717"/>
<path fill="none" stroke="#000000" stroke-miterlimit="10" d="M38.262,46.095c0,1.755-0.276,3.716,0.129,5.423
	c0.928,3.918,4.905,3.866,8.04,5.105c2.762,1.091,5.071,3.205,7.92,4.276c0.651,0.245,1.232,0.331,1.885,0.434
	c1.008,0.159,2.107,0.16,3.098,0.476"/>
<path fill="none" stroke="#000000" stroke-miterlimit="10" d="M11.833,59.667c1.859-0.065,3.642,0.588,5.502,0.595
	c1.62,0.006,3.181,0.03,4.784-0.212c1.689-0.254,4.14-0.244,4.839-2.133c0.069,0.677-0.291,0.826-0.576,1.39
	c-0.856,1.695-1.859,3.17-2.983,4.683c-1.099,1.478-3.056,4.065-4.999,4.256c1.455-0.457,2.709-1.744,3.923-2.641
	c1.458-1.077,3.63-1.094,4.913-2.297c0.984-0.923,1.062-2.623,2.356-3.209c0.793,1.996,2.432,2.79,3.55,4.535
	c0.604,0.942,1.133,1.708,2.128,2.165c-0.727-1.798-1.475-4.436-1.292-6.414c1.46-0.071,2.1,0.987,3.02,1.897
	c1.622,1.606,3.366,2.224,5.297,3.348c1.174,0.684,2.151,1.648,3.236,2.447c-0.176-1.395-1.747-3.752-2.692-4.717
	c-1.239-1.266-1.409-1.627-1.843-3.317c6.247-0.671,10.848,5.868,16.99,5.695c-0.961-0.082-1.797-1.227-2.697-1.651
	c-1.294-0.609-2.763-1.065-4.13-1.47c-1.325-0.392-3.387-0.672-4.324-1.8c1.845,0.327,3.813,1.071,5.813,1.257
	c1.32,0.123,2.661,0.131,3.946,0.331"/>
</svg>
