<?xml version="1.0" encoding="utf-8"?>
<!-- Generator: Adobe Illustrator 17.0.0, SVG Export Plug-In . SVG Version: 6.00 Build 0)  -->
<!DOCTYPE svg PUBLIC "-//W3C//DTD SVG 1.1//EN" "http://www.w3.org/Graphics/SVG/1.1/DTD/svg11.dtd">
<svg version="1.1" id="Layer_1" xmlns="http://www.w3.org/2000/svg" xmlns:xlink="http://www.w3.org/1999/xlink" x="0px" y="0px"
	 width="70px" height="70px" viewBox="0 0 70 70" enable-background="new 0 0 70 70" xml:space="preserve">
<path fill="none" stroke="#000000" stroke-miterlimit="10" d="M12.583,17.702c0,10.676-0.221,21.38,0.221,32.045
	c0.045,1.081,0.035,2.76,0.493,3.734c0.455,0.968,1.396,1.476,2.231,2.092C19.863,58.77,26.515,58.5,31.697,58.5
	c3.031,0,6.063,0,9.094,0c3.057,0,6.017,0.108,9.048,0.232c2.081,0.086,4.661,0.223,6.666-0.254
	c0.586-0.139,1.021-0.274,1.423-0.784c0.538-0.684,0.425-2.021,0.572-2.843c0.263-1.471,0.314-2.972,0.364-4.481
	c0.318-9.613,0.351-19.244,0.351-28.884c0-0.867,0.198-1.962,0-2.785c-0.249-1.032-0.414-0.736-1.167-1.408
	c-1.064-0.951-1.312-1.346-2.892-1.556c-2.261-0.302-4.651-0.116-6.941-0.117c-6.122-0.001-12.077-1.31-18.178-1.31
	c-4.128,0-8.242-0.208-12.363-0.238c-1.404-0.01-3.696-0.466-4.619,0.586c-0.646,0.735-0.553,2.037-0.553,2.985
	c0,0.079,0,0.357,0,0.357"/>
<line fill="none" stroke="#000000" stroke-miterlimit="10" x1="23.5" y1="49" x2="23.5" y2="32"/>
<path fill="none" stroke="#000000" stroke-miterlimit="10" d="M23.857,23.119c-1.241-0.072-2.631,1.596-2.026,2.84
	c0.347,0.713,1.541,0.61,2.3,0.41c1.678-0.441,1.992-1.887,0.559-2.893"/>
<path fill="none" stroke="#000000" stroke-miterlimit="10" d="M34.5,34c0,0,0,8.344,0,12.658c0-2.927-0.291-7.118,1.988-9.266
	c0.649-0.612,1.497-0.926,2.229-1.421c0.697-0.471,1.254-1.178,2.004-1.558c1.727-0.876,4.532-0.96,6.22,0.002
	c1.124,0.641,3.044,2.01,3.724,3.189c0.831,1.439,0.597,3.709,0.671,5.336c0.086,1.883,0.089,3.85-0.012,5.679"/>
</svg>
