<?xml version="1.0" encoding="utf-8"?>
<!-- Generator: Adobe Illustrator 17.0.0, SVG Export Plug-In . SVG Version: 6.00 Build 0)  -->
<!DOCTYPE svg PUBLIC "-//W3C//DTD SVG 1.1//EN" "http://www.w3.org/Graphics/SVG/1.1/DTD/svg11.dtd">
<svg version="1.1" id="Layer_1" xmlns="http://www.w3.org/2000/svg" xmlns:xlink="http://www.w3.org/1999/xlink" x="0px" y="0px"
	 width="250px" height="250px" viewBox="0 0 250 250" enable-background="new 0 0 250 250" xml:space="preserve">
<path fill="none" stroke="#000000" stroke-miterlimit="10" d="M48.388,79.076c0,18.052-0.012,35.966,1.17,53.951
	c0.528,8.034,0.946,16.008,0.941,24.078c-0.006,8.276-1.881,19.922,6.692,24.533c11.54,6.206,28.075,4.204,40.677,4.189
	c12.434-0.015,24.861-0.661,37.227-0.87c8.978-0.151,17.849,2.108,26.852,2.177c7.109,0.054,14.224-0.04,21.334-0.04
	c3.883,0,7.78-0.27,11.551-0.432c3.215-0.138,8.272,1.006,11.286-0.288c4.654-1.998,3.885-7.707,3.873-12.184
	c-0.044-17.514-1.266-34.654-1.266-52.125c0-9.998,0.449-20.13-0.814-30.011c-1.483-11.607-10.228-14.394-21.06-16.197
	c-10.811-1.8-21.82-0.459-32.695-1.308c-4.381-0.342-8.432-1.346-12.887-1.008c-23.076,1.749-45.968,8.302-69.373,5.39
	c-2.902-0.361-24.44-7.409-24.352,1.411"/>
<path fill="none" stroke="#000000" stroke-miterlimit="10" d="M135.73,103.127c-3.242-0.513-6.348-1.056-9.652-0.882
	c-8.273,0.435-12.277,6.396-19.07,10.186c-7.728,4.311-8.541,11.007-8.831,19.147c-0.352,9.901,3.301,11.269,10.472,17.341
	c2.633,2.229,3.816,5.802,6.388,7.827c1.839,1.448,6.889,3.555,9.421,4.101c4.544,0.981,10.126,0.379,14.397-1.004
	c4.071-1.319,7.799-3.57,11.685-5.238c3.453-1.481,8.629-1.509,11.554-3.77c8.242-6.373,4.538-19.978,1.156-27.582
	c-3.156-7.094-6.241-13.032-13.512-15.987c-3.949-1.605-8.401-1.349-12.32-2.873"/>
<path fill="none" stroke="#000000" stroke-miterlimit="10" d="M128.557,109.456c-11.222-1.338-14.261,8.765-14.346,17.712
	c-0.033,3.514-0.501,9.665,1.773,12.571c2.471,3.158,8.881,4.228,12.573,5.562c6.764,2.444,13.086,3.714,18.162-3.352
	c3.056-4.254,3.929-10.5,2.957-15.635c-0.435-2.299-1.809-5.356-3.061-7.277c-2.305-3.535-5.052-3.435-8.352-5.433
	c-2.843-1.722-3.946-4.983-8.018-4.147"/>
<path fill="none" stroke="#000000" stroke-miterlimit="10" d="M174.127,83.717c0,3.278-0.607,7.202,0,10.455
	c0.747,4,1.113,4.156,5.969,4.651c4.287,0.437,14.827,1.594,18.44-1.279c3.328-2.646,2.407-11.058-1.311-12.897
	c-5.664-2.801-14.426,0.38-20.566-0.086"/>
<path fill="none" stroke="#000000" stroke-miterlimit="10" d="M72.017,77.388c-0.004-6.449,0.44-6.31,6.751-6.329
	c6.51-0.02,6.729,1.406,6.751,7.595"/>
</svg>
