<?xml version="1.0" encoding="utf-8"?>
<!-- Generator: Adobe Illustrator 17.0.0, SVG Export Plug-In . SVG Version: 6.00 Build 0)  -->
<!DOCTYPE svg PUBLIC "-//W3C//DTD SVG 1.1//EN" "http://www.w3.org/Graphics/SVG/1.1/DTD/svg11.dtd">
<svg version="1.1" id="Layer_1" xmlns="http://www.w3.org/2000/svg" xmlns:xlink="http://www.w3.org/1999/xlink" x="0px" y="0px"
	 width="70px" height="70px" viewBox="0 0 70 70" enable-background="new 0 0 70 70" xml:space="preserve">
<path fill="none" stroke="#000000" stroke-miterlimit="10" d="M8.5,18.952c0,2.67,0.225,5.418-0.221,8.048
	c-0.692,4.08-2.4,7.908-3.025,11.974c-0.347,2.254-0.854,6.718,0.245,8.832c0.544,1.046,1.562,1.709,2.456,2.424
	c1.72,1.376,3.067,2.364,5.218,3.201c4.422,1.72,8.904,2.258,13.628,2.403c2.652,0.081,5.533,0.315,8.165-0.012
	c2.499-0.311,4.892-0.999,7.439-1.041c3.416-0.056,6.839,0.005,10.255,0.005c2.678,0,5.363,0.053,8.041-0.001
	c1.542-0.031,1.532-0.069,1.611-1.629c0.466-9.217-0.002-18.571-0.002-27.804c0-2.63,1.104-8.842-2.037-10.219
	c-0.788-0.345-2.49-0.107-3.311-0.113c-2.557-0.02-5.117-0.007-7.674,0.004c-5.158,0.022-10.28-0.473-15.38-1.252
	c-4.039-0.617-8.194-1.604-12.289-1.608c-3.241-0.003-7.513,0.226-10.474,1.669c-1.416,0.69-2.537,1.396-4.081,1.812
	c0.712,1.761,2.477,2.712,3.793,3.975c2.284,2.193,3.959,4.862,6.251,7.059c3.133,3.004,5.357,6.877,8.464,9.864
	c1.207,1.16,2.744,2.866,4.432,3.257c2.821,0.653,4.793-1.187,7.095-2.545c2.394-1.412,4.935-2.525,7.321-3.912
	c2.346-1.364,3.477-3.87,5.806-5.26c0.968-0.578,2.017-1.029,2.8-1.866c0.686-0.732,0.878-1.709,1.539-2.434
	c0.612-0.672,1.586-0.831,2.251-1.452c1.047-0.977,1.145-2.423,1.81-3.613c0.439-0.785,1.033-1.493,1.661-2.029"/>
</svg>
