<?xml version="1.0" encoding="utf-8"?>
<!-- Generator: Adobe Illustrator 17.0.0, SVG Export Plug-In . SVG Version: 6.00 Build 0)  -->
<!DOCTYPE svg PUBLIC "-//W3C//DTD SVG 1.1//EN" "http://www.w3.org/Graphics/SVG/1.1/DTD/svg11.dtd">
<svg version="1.1" id="Layer_1" xmlns="http://www.w3.org/2000/svg" xmlns:xlink="http://www.w3.org/1999/xlink" x="0px" y="0px"
	 width="250px" height="250px" viewBox="0 0 250 250" enable-background="new 0 0 250 250" xml:space="preserve">
<path fill="none" stroke="#000000" stroke-miterlimit="10" d="M45.435,172.325c-0.154-6.803,1.248-14.372,3.623-20.735
	c1.889-5.059,4.704-12.824,7.994-17.17c2.739-3.618,7.44-4.005,10.435-7.387c3.361-3.796,3.367-5.017,8.011-7.112
	c12.922-5.83,19.879-18.69,20.568-32.49c0.273-5.473,0.526-11.627-1.561-16.701c-2.824-6.868-8.866-9.57-4.333-17.772
	c3.525-6.378,5.911-11.85,5.895-19.354c-0.013-6.051-0.422-12.121,1.358-17.817c1.951-6.244,5.933-6.693,12.248-6.753
	c6.088-0.057,11.92-0.904,18.041-0.844c8.276,0.082,11.328,2.676,16.751,8.226c1.626,1.665,3.748,2.178,4.775,4.348
	c1.7,3.592,1.801,9.374,2.533,13.318c1.159,6.242,3.23,17.787,0.823,23.943c-1.757,4.493-8.937,7.57-13.17,10.061
	c-4.78,2.814-9.403,4.85-14.107,7.536c-3.667,2.094-9.61,5.324-12.277,8.573c-4.403,5.364-3.844,16.528-4.855,23.163
	c-1.695,11.128,7.616,7.391,14.1,13.383c2.509,2.318,3.84,5.136,6.861,7.286c5.77,4.106,8.698,9.659,12.478,15.671
	c4.691,7.46,8.814,17.188,11.413,25.714c1.925,6.316,1.8,12.244,5.897,17.68"/>
<path fill="none" stroke="#000000" stroke-miterlimit="10" d="M117.586,23.802c5.877,0,9.356-0.6,11.392,5.485"/>
<path fill="none" stroke="#000000" stroke-miterlimit="10" d="M110.414,23.802c-3.338,0-6.746-0.118-10.055,0.072
	c0.052,0.588-0.244,0.507-0.494,0.772"/>
<path fill="none" stroke="#000000" stroke-miterlimit="10" d="M118.43,28.021c4-0.385,6.088,2.579,5.843,6.265
	c-1.5-0.005-2.856,0.635-3.734,1.752"/>
<path fill="none" stroke="#000000" stroke-miterlimit="10" d="M105.35,28.021c-4.932-0.117-9.272,2.756-6.257,7.945
	c0.951,0.084,1.86,0.771,2.46,0.916"/>
<path fill="none" stroke="#000000" stroke-miterlimit="10" d="M116.743,31.819c-0.317,0.131-0.839-0.031-1.202,0.064
	c-0.059,0.528-0.17,1.03,0,1.56c0.87,0.334,1.218-0.256,1.624-0.358"/>
<path fill="none" stroke="#000000" stroke-miterlimit="10" d="M106.194,46.165c-4.891-0.174-1.552-5.778-0.422-8.017"/>
<path fill="none" stroke="#000000" stroke-miterlimit="10" d="M103.662,55.025c2.707,0,6.957-1.113,8.439,1.688"/>
<path fill="none" stroke="#000000" stroke-miterlimit="10" d="M103.241,30.553c-0.55-0.032-1.092-0.028-1.624,0.064
	c-0.212,0.708-0.217,2.119,0,2.826c0.534,0.171,1.03,0.049,1.56,0c0.095-0.366-0.066-0.88,0.064-1.202"/>
</svg>
