<?xml version="1.0" encoding="utf-8"?>
<!-- Generator: Adobe Illustrator 17.0.0, SVG Export Plug-In . SVG Version: 6.00 Build 0)  -->
<!DOCTYPE svg PUBLIC "-//W3C//DTD SVG 1.1//EN" "http://www.w3.org/Graphics/SVG/1.1/DTD/svg11.dtd">
<svg version="1.1" id="Layer_1" xmlns="http://www.w3.org/2000/svg" xmlns:xlink="http://www.w3.org/1999/xlink" x="0px" y="0px"
	 width="250px" height="250px" viewBox="0 0 250 250" enable-background="new 0 0 250 250" xml:space="preserve">
<path fill="none" stroke="#000000" stroke-miterlimit="10" d="M53.451,38.992c0,16.593-2.601,33.627-0.75,49.848
	c0.704,6.169,0.772,13.774,2.427,19.801c1.105,4.022,3.306,5.095,7.081,7.196c3.605,2.007,7.102,4.512,11.088,5.556
	c4.701,1.231,9.978,0.763,14.782,1.553c16.636,2.737,34.864,1.276,51.848,1.278c8.763,0.001,17.246,1.123,26.068,0.844
	c5.12-0.162,17.696,0.788,21.146-3.038c5.312-5.89,3.849-21.838,4.191-29.067c0.682-14.423-0.192-29.059-0.328-43.413
	c-0.038-4.024,0.187-9.266-2.205-12.582c-2.807-3.891-8.399-3.67-12.864-3.893c-29.917-1.493-60.002-0.005-89.928-1.584
	c-6.84-0.361-14.147-0.499-20.826,0.727c-3.063,0.562-9.502,1.282-11.422,3.728c-0.584,0.744-0.706,0.753-0.73,1.78"/>
<path fill="none" stroke="#000000" stroke-miterlimit="10" d="M76.658,49.962c-0.413-0.394-0.844-0.777-1.294-1.118
	c3.155,13.002-1.451,28.027,1.285,41.306c1.558,7.563,4.742,10.039,12.338,12.998c16.727,6.516,35.133,2.452,52.289,4.083
	c7.35,0.699,17.896,3.286,25.202,0.941c0.679-15.411,0.938-31.771,0.054-47.215c-0.195-3.398-0.265-7.023-1.582-10.151
	c-2.461-5.846-9.278-4.219-14.864-4.219c-7.274,0-74.641-5.323-74.693,2.954"/>
<path fill="none" stroke="#000000" stroke-miterlimit="10" d="M170.751,128.021c0,8.932,2.984,20.682-5.025,26.637
	c-6.172,4.589-14.588,6.912-21.913,8.92c-2.831,0.776-7.142,0.518-9.349,1.574"/>
<path fill="none" stroke="#000000" stroke-miterlimit="10" d="M81.722,163.886c6.505-0.447,14.358,1.907,20.679,3.081
	c6.895,1.281,13.825,2.07,20.818,2.415c12.176,0.601,24.299,2.069,36.466,2.08c-0.074,9.091,2.562,19.693,3.87,28.655
	c-11.651-1.004-23.444-2.926-35.083-4.596c-12.402-1.779-25.031-1.64-37.458-2.512c-6.33-0.444-12.689-1.536-19.002-2.119
	c-3.465-0.32-8.093,0.284-11.329-0.917c1.063-4.139,7.276-9.129,9.977-13.081c2.272-3.323,6.097-6.133,7.687-9.63"/>
<path fill="none" stroke="#000000" stroke-miterlimit="10" d="M82.143,173.169c0,3.325-0.052,6.665,0.017,9.982
	c2.825-3.157,7.658-4.349,11.348-6.121c1.471-0.706,2.499-1.676,4.203-1.75c5.429-0.237,5.775,5.087,6.015,9.646
	c1.525-3.338,4.065-6.072,7.973-6.27c5.963-0.302,5.8,6.274,10.292,9.713c2.62-1.788,3.329-5.336,6.164-6.86
	c0.85,1.459,0.831,3.392,0.95,5.115c2.92-1.772,3.611-3.323,6.603-3.359c0.995-0.012,1.866,1.637,3.122,1.661
	c1.702,0.032,3.863-1.858,5.317-2.451c0.067,2.568,2.211,4.061,4.241,4.617"/>
<path fill="none" stroke="#000000" stroke-miterlimit="10" d="M115.477,127.599c0,3.207,0.091,6.462-0.054,9.648
	c-3.545,0.163-7.103-0.322-10.503,0.796c-2.874,0.945-5.279,3.204-8.169,3.901c13.754,0.013,27.805,1.324,41.477,0.328
	c-5.7-3.402-10.8-7.148-18.046-6.719c-0.119-2.202-0.064-4.461-0.064-6.687"/>
</svg>
